<?xml version="1.0" encoding="UTF-8" standalone="no"?>
<!-- Created with Inkscape (http://www.inkscape.org/) -->

<svg
   width="96.572922mm"
   height="50.270851mm"
   viewBox="0 0 96.572922 50.270851"
   version="1.1"
   id="svg1"
   inkscape:version="1.3.2 (091e20ef0f, 2023-11-25, custom)"
   sodipodi:docname="logo.svg"
   xmlns:inkscape="http://www.inkscape.org/namespaces/inkscape"
   xmlns:sodipodi="http://sodipodi.sourceforge.net/DTD/sodipodi-0.dtd"
   xmlns="http://www.w3.org/2000/svg"
   xmlns:svg="http://www.w3.org/2000/svg">
  <sodipodi:namedview
     id="namedview1"
     pagecolor="#ffffff"
     bordercolor="#666666"
     borderopacity="1.0"
     inkscape:showpageshadow="2"
     inkscape:pageopacity="0.0"
     inkscape:pagecheckerboard="0"
     inkscape:deskcolor="#d1d1d1"
     inkscape:document-units="mm"
     inkscape:zoom="1.0066639"
     inkscape:cx="328.31217"
     inkscape:cy="287.08689"
     inkscape:window-width="2560"
     inkscape:window-height="1376"
     inkscape:window-x="0"
     inkscape:window-y="0"
     inkscape:window-maximized="1"
     inkscape:current-layer="layer1" />
  <defs
     id="defs1" />
  <g
     inkscape:label="Ebene 1"
     inkscape:groupmode="layer"
     id="layer1"
     transform="translate(-18.25625,-72.49583)">
    <path
       style="fill:#000000;fill-rule:evenodd;stroke:none;stroke-width:0.264583px;stroke-linecap:butt;stroke-linejoin:miter;stroke-opacity:1"
       d="m 77.787505,72.49584 v 6.61458 l 5.29167,5.29167 v -5.29167 h 6.61458 v 7.9375 l 5.29167,-5.29166 v -6.61459 l -2.64583,-2.64583 z"
       id="path1"
       sodipodi:nodetypes="cccccccccc" />
    <path
       style="fill:#000000;fill-rule:evenodd;stroke:none;stroke-width:0.264583px;stroke-linecap:butt;stroke-linejoin:miter;stroke-opacity:1"
       d="m 77.787505,81.75626 v 14.55208 h 3.96875 l 1.32292,-1.32292 v -7.9375 z"
       id="path2"
       sodipodi:nodetypes="cccccc" />
    <path
       style="fill:#000000;fill-rule:evenodd;stroke:none;stroke-width:0.264583px;stroke-linecap:butt;stroke-linejoin:miter;stroke-opacity:1"
       d="M 77.787505,113.50625 V 98.95417 h 3.96875 l 1.32292,1.32292 v 7.9375 z"
       id="path3"
       sodipodi:nodetypes="cccccc" />
    <path
       style="fill:#000000;fill-rule:evenodd;stroke:none;stroke-width:0.264583px;stroke-linecap:butt;stroke-linejoin:miter;stroke-opacity:1"
       d="m 77.787505,122.76668 v -6.61458 l 5.29167,-5.29167 v 5.29167 h 6.61458 v -7.9375 l 5.29167,5.29166 v 6.61459 l -2.64583,2.64583 z"
       id="path4"
       sodipodi:nodetypes="cccccccccc" />
    <path
       style="fill:#000000;fill-rule:evenodd;stroke:none;stroke-width:0.264583px;stroke-linecap:butt;stroke-linejoin:miter;stroke-opacity:1"
       d="m 85.725005,89.69376 v 7.9375 l 2.64583,2.64583 h 2.64584 v -5.29167 z"
       id="path5" />
    <path
       id="path5-0-4-6"
       style="fill:#000000;fill-rule:evenodd;stroke:none;stroke-width:0.264583px;stroke-linecap:butt;stroke-linejoin:miter;stroke-opacity:1"
       d="M 75.141675,108.21459 V 101.6 l -2.64583,-2.64583 h -2.645843 v 5.29167 l 3e-6,9.26041 z m -5.291666,-3.96876 -4e-6,-5.29166 h -5.291666 z" />
    <path
       style="fill:#000000;fill-rule:evenodd;stroke:none;stroke-width:0.264583px;stroke-linecap:butt;stroke-linejoin:miter;stroke-opacity:1"
       d="m 18.256253,72.49584 v 6.61458 l 5.29167,5.29167 v -5.29167 h 6.61458 l 5.291666,5.29167 4e-6,-2.64583 v -6.61459 l -2.64583,-2.64583 z"
       id="path1-9"
       sodipodi:nodetypes="cccccccccc" />
    <path
       style="fill:#000000;fill-rule:evenodd;stroke:none;stroke-width:0.264583px;stroke-linecap:butt;stroke-linejoin:miter;stroke-opacity:1"
       d="m 18.256253,81.75626 v 14.55208 h 3.96875 l 1.32292,-1.32292 v -7.9375 z"
       id="path2-2"
       sodipodi:nodetypes="cccccc" />
    <path
       style="fill:#000000;fill-rule:evenodd;stroke:none;stroke-width:0.264583px;stroke-linecap:butt;stroke-linejoin:miter;stroke-opacity:1"
       d="m 30.162499,81.75626 v 14.55208 h 3.96875 l 1.32292,-1.32292 v -7.9375 z"
       id="path2-2-1"
       sodipodi:nodetypes="cccccc" />
    <path
       style="fill:#000000;fill-rule:evenodd;stroke:none;stroke-width:0.264583px;stroke-linecap:butt;stroke-linejoin:miter;stroke-opacity:1"
       d="M 18.256253,113.50625 V 98.95417 h 3.96875 l 1.32292,1.32292 v 7.9375 z"
       id="path3-2"
       sodipodi:nodetypes="cccccc" />
    <path
       style="fill:#000000;fill-rule:evenodd;stroke:none;stroke-width:0.264583px;stroke-linecap:butt;stroke-linejoin:miter;stroke-opacity:1"
       d="m 23.54792,110.86043 v 9.26041 l -2.645834,2.64584 h -2.645833 l -3e-6,-6.61459 z"
       id="path3-2-1"
       sodipodi:nodetypes="cccccc" />
    <path
       style="fill:#000000;fill-rule:evenodd;stroke:none;stroke-width:0.264583px;stroke-linecap:butt;stroke-linejoin:miter;stroke-opacity:1"
       d="M 30.162503,113.50625 V 98.95417 h 3.96875 l 1.32292,1.32292 v 7.9375 z"
       id="path3-2-8"
       sodipodi:nodetypes="cccccc" />
    <path
       style="fill:#000000;fill-rule:evenodd;stroke:none;stroke-width:0.264583px;stroke-linecap:butt;stroke-linejoin:miter;stroke-opacity:1"
       d="m 35.45417,110.86043 v 9.26041 l -2.645834,2.64584 h -2.645833 l -3e-6,-6.61459 z"
       id="path3-2-1-4"
       sodipodi:nodetypes="cccccc" />
    <path
       style="fill:#000000;fill-rule:evenodd;stroke:none;stroke-width:0.264583px;stroke-linecap:butt;stroke-linejoin:miter;stroke-opacity:1"
       d="m 38.100006,72.49584 v 6.61458 l 5.29167,5.29167 v -5.29167 h 6.61458 l 5.291666,5.29167 4e-6,-2.64583 v -6.61459 l -2.64583,-2.64583 z"
       id="path1-9-6"
       sodipodi:nodetypes="cccccccccc" />
    <path
       style="fill:#000000;fill-rule:evenodd;stroke:none;stroke-width:0.264583px;stroke-linecap:butt;stroke-linejoin:miter;stroke-opacity:1"
       d="m 38.100006,81.75626 v 14.55208 h 3.96875 l 1.32292,-1.32292 v -7.9375 z"
       id="path2-2-10"
       sodipodi:nodetypes="cccccc" />
    <path
       style="fill:#000000;fill-rule:evenodd;stroke:none;stroke-width:0.264583px;stroke-linecap:butt;stroke-linejoin:miter;stroke-opacity:1"
       d="m 50.006252,81.75626 v 14.55208 h 3.96875 l 1.32292,-1.32292 v -7.9375 z"
       id="path2-2-1-6"
       sodipodi:nodetypes="cccccc" />
    <path
       style="fill:#000000;fill-rule:evenodd;stroke:none;stroke-width:0.264583px;stroke-linecap:butt;stroke-linejoin:miter;stroke-opacity:1"
       d="M 38.100006,113.50625 V 98.95417 h 3.96875 l 1.32292,1.32292 v 7.9375 z"
       id="path3-2-3"
       sodipodi:nodetypes="cccccc" />
    <path
       style="fill:#000000;fill-rule:evenodd;stroke:none;stroke-width:0.264583px;stroke-linecap:butt;stroke-linejoin:miter;stroke-opacity:1"
       d="M 50.006256,113.50625 V 98.95417 h 3.96875 l 1.32292,1.32292 v 7.9375 z"
       id="path3-2-8-0"
       sodipodi:nodetypes="cccccc" />
    <path
       style="fill:#000000;fill-rule:evenodd;stroke:none;stroke-width:0.264583px;stroke-linecap:butt;stroke-linejoin:miter;stroke-opacity:1"
       d="m 38.100006,122.76667 v -6.61458 l 5.29167,-5.29167 v 5.29167 h 6.61458 l 5.291666,-5.29167 4e-6,2.64583 v 6.61459 l -2.64583,2.64583 z"
       id="path6"
       sodipodi:nodetypes="cccccccccc" />
    <path
       style="fill:#000000;fill-rule:evenodd;stroke:none;stroke-width:0.264583px;stroke-linecap:butt;stroke-linejoin:miter;stroke-opacity:1"
       d="m 57.943756,72.49584 v 6.61458 l 5.29167,5.29167 v -5.29167 h 6.61458 l 5.291669,5.29167 10e-6,-2.64583 v -6.61459 l -2.64584,-2.64583 z"
       id="path1-9-6-6"
       sodipodi:nodetypes="cccccccccc" />
    <path
       style="fill:#000000;fill-rule:evenodd;stroke:none;stroke-width:0.264583px;stroke-linecap:butt;stroke-linejoin:miter;stroke-opacity:1"
       d="m 57.943756,81.75626 v 14.55208 h 3.96875 l 1.32292,-1.32292 v -7.9375 z"
       id="path2-2-10-9"
       sodipodi:nodetypes="cccccc" />
    <path
       id="path2-2-10-9-7"
       style="fill:#000000;fill-rule:evenodd;stroke:none;stroke-width:0.264583px;stroke-linecap:butt;stroke-linejoin:miter;stroke-opacity:1"
       d="m 69.850005,81.75626 v 14.55208 h 2.91042 l 2.38125,-2.64584 v -6.61458 z m -5.29167,6.61458 6e-6,5.29166 2.64583,2.64583 h 2.64584 l -6e-6,-2.64583 z" />
    <path
       style="fill:#000000;fill-rule:evenodd;stroke:none;stroke-width:0.264583px;stroke-linecap:butt;stroke-linejoin:miter;stroke-opacity:1"
       d="M 57.943756,113.50625 V 98.95417 h 3.96875 l 1.32292,1.32292 v 7.9375 z"
       id="path3-2-3-7"
       sodipodi:nodetypes="cccccc" />
    <path
       style="fill:#000000;fill-rule:evenodd;stroke:none;stroke-width:0.264583px;stroke-linecap:butt;stroke-linejoin:miter;stroke-opacity:1"
       d="m 63.235425,110.86043 v 9.26041 l -2.645834,2.64584 h -2.645833 l -3e-6,-6.61459 z"
       id="path7"
       sodipodi:nodetypes="cccccc" />
    <path
       style="fill:#000000;fill-rule:evenodd;stroke:none;stroke-width:0.264583px;stroke-linecap:butt;stroke-linejoin:miter;stroke-opacity:1"
       d="m 97.631245,72.49583 v 6.61458 h 5.291665 6.61458 l 5.29168,1e-5 v -3.96876 l -2.64583,-2.64583 z"
       id="path1-9-6-6-6"
       sodipodi:nodetypes="cccccccc" />
    <path
       style="fill:#000000;fill-rule:evenodd;stroke:none;stroke-width:0.264583px;stroke-linecap:butt;stroke-linejoin:miter;stroke-opacity:1"
       d="m 102.92291,81.75626 v 14.55208 h 3.96875 l 1.32293,-1.32292 c 0,0 1e-5,-5.29167 0,-7.9375 z"
       id="path2-2-10-9-6"
       sodipodi:nodetypes="cccccc" />
    <path
       style="fill:#000000;fill-rule:evenodd;stroke:none;stroke-width:0.264583px;stroke-linecap:butt;stroke-linejoin:miter;stroke-opacity:1"
       d="M 102.92291,113.50625 V 98.95417 h 3.96875 l 1.32293,1.32292 v 7.9375 z"
       id="path3-2-3-7-4"
       sodipodi:nodetypes="cccccc" />
    <path
       style="fill:#000000;fill-rule:evenodd;stroke:none;stroke-width:0.264583px;stroke-linecap:butt;stroke-linejoin:miter;stroke-opacity:1"
       d="m 108.21459,110.86043 v 9.26041 l -2.64584,2.64584 h -2.64583 v -6.61459 z"
       id="path7-9"
       sodipodi:nodetypes="cccccc" />
    <path
       style="fill:#000000;fill-rule:evenodd;stroke:none;stroke-width:0.264583px;stroke-linecap:butt;stroke-linejoin:miter;stroke-opacity:1"
       d="m 75.141675,110.86043 v 9.26041 l -2.64584,2.64584 h -2.645831 l -3e-6,-6.61459 z"
       id="path7-8"
       sodipodi:nodetypes="cccccc" />
  </g>
</svg>
