<?xml version="1.0" encoding="UTF-8" standalone="no"?>
<!-- Created with Inkscape (http://www.inkscape.org/) -->

<svg
   width="82.680916mm"
   height="86.300331mm"
   viewBox="0 0 82.680916 86.300331"
   version="1.1"
   id="svg1"
   xml:space="preserve"
   inkscape:version="1.3.2 (091e20ef0f, 2023-11-25, custom)"
   sodipodi:docname="touloni.svg"
   xmlns:inkscape="http://www.inkscape.org/namespaces/inkscape"
   xmlns:sodipodi="http://sodipodi.sourceforge.net/DTD/sodipodi-0.dtd"
   xmlns="http://www.w3.org/2000/svg"
   xmlns:svg="http://www.w3.org/2000/svg"><sodipodi:namedview
     id="namedview1"
     pagecolor="#ffffff"
     bordercolor="#666666"
     borderopacity="1.0"
     inkscape:showpageshadow="2"
     inkscape:pageopacity="0.0"
     inkscape:pagecheckerboard="0"
     inkscape:deskcolor="#d1d1d1"
     inkscape:document-units="mm"
     showguides="true"
     inkscape:zoom="1.4236377"
     inkscape:cx="395.817"
     inkscape:cy="362.45177"
     inkscape:window-width="2560"
     inkscape:window-height="1376"
     inkscape:window-x="0"
     inkscape:window-y="0"
     inkscape:window-maximized="1"
     inkscape:current-layer="g1"><sodipodi:guide
       position="-3.8896313,273.5314"
       orientation="0,-1"
       id="guide112"
       inkscape:locked="false" /></sodipodi:namedview><defs
     id="defs1" /><g
     inkscape:label="Ebene 1"
     inkscape:groupmode="layer"
     id="layer1"
     transform="translate(-48.679526,-45.295964)"><g
       id="g1"
       transform="matrix(0.35277778,0,0,0.35277778,0.00170646,-1.5284516e-4)"><g
         id="path111" /><g
         fill="#000000"
         fill-opacity="1"
         id="g245"
         style="fill:none"><g
           id="use245"
           style="fill:none"
           transform="translate(307.10681,491.99731)" /></g><g
         fill="#000000"
         fill-opacity="1"
         id="g304"
         style="fill:none"><g
           id="use304"
           style="fill:none"
           transform="translate(307.07889,503.99429)" /></g><g
         fill="#000000"
         fill-opacity="1"
         id="g549"
         style="fill:none"><g
           id="use549"
           style="fill:none"
           transform="translate(307.0798,599.99731)" /></g><g
         fill="#000000"
         fill-opacity="1"
         id="g607"
         style="fill:none"><g
           id="use607"
           style="fill:none"
           transform="translate(307.1077,611.99432)" /></g><g
         fill="#000000"
         fill-opacity="1"
         id="g953"
         style="fill:none"><g
           id="use953"
           style="fill:none"
           transform="translate(307.12479,719.99731)" /></g><g
         fill="#000000"
         fill-opacity="1"
         id="g1017"
         style="fill:none"><g
           id="use1017"
           style="fill:none"
           transform="translate(307.10681,731.99432)" /></g><g
         fill="#000000"
         fill-opacity="1"
         id="g1356"
         style="fill:none"><g
           id="use1356"
           style="fill:none"
           transform="translate(538.57581,515.99731)" /></g><g
         fill="#000000"
         fill-opacity="1"
         id="g1408"
         style="fill:none"><g
           id="use1408"
           style="fill:none"
           transform="translate(538.58569,527.99432)" /></g><g
         fill="#000000"
         fill-opacity="1"
         id="g1409"
         style="fill:none"><g
           id="use1409"
           style="fill:none"
           transform="translate(538.58478,527.99432)" /></g><g
         fill="#000000"
         fill-opacity="1"
         id="g2021"
         style="fill:none"><g
           id="use2021"
           style="fill:none"
           transform="translate(538.61627,707.99432)" /></g><g
         fill="#000000"
         fill-opacity="1"
         id="g2079"
         style="fill:none"><g
           id="use2079"
           style="fill:none"
           transform="translate(538.59381,719.99127)" /></g><g
         fill="#000000"
         fill-opacity="1"
         id="g2135"
         style="fill:none"><g
           id="use2135"
           style="fill:none"
           transform="translate(538.59833,731.98828)" /></g><path
         id="path112"
         style="color:#000000;fill:#000000;-inkscape-stroke:none"
         d="m 137.98437,248.11328 v 7.72461 21 h 28.72266 v -28.72461 z m 9.26954,9.27149 h 10.18359 v 10.18164 h -10.18359 z m 79.76562,-78.80469 v 11.95312 l 58.48828,49.3418 v -12.02539 z m 116.61328,108.87304 v 7.72461 21 h 28.72266 v -28.72461 z m 9.26953,9.27149 h 10.1836 v 10.18164 h -10.1836 z m -5.4082,-5.4082 v 3.86132 17.13672 h 20.99805 v -20.99804 z m 1.54492,1.54492 h 17.90821 v 17.9082 h -17.90821 v -15.5918 z m -77.8125,51.44336 v 7.72851 20.9961 h 28.72266 v -28.72461 z m 9.26953,9.27148 h 10.1836 v 10.18164 h -10.1836 z m -5.4082,-5.4082 v 3.86523 17.13282 h 20.99805 v -20.99805 z m 1.54492,1.54492 h 17.90821 v 17.9082 H 276.63281 V 352.0332 Z M 170.90039,307.9668 v 6.17968 19.45313 H 196.5332 V 307.9668 Z m 6.17969,6.17968 h 13.27344 v 13.27344 h -13.27344 z m -7.72461,-7.72461 v 7.72461 21 h 28.72265 v -28.72461 z m 9.26953,9.27149 h 10.18359 V 325.875 H 178.625 Z m -40.64063,-67.58008 v 7.72461 21 h 28.72266 v -28.72461 z m 9.26954,9.27149 h 10.18359 v 10.18164 h -10.18359 z m -5.40821,-5.40821 v 3.86133 17.13672 h 20.99805 v -20.99805 z m 1.54492,1.54492 h 17.90821 v 17.90821 h -17.90821 v -15.5918 z m 111.82032,-125.12304 -20.31836,20.31836 5.4707,5.46093 14.8457,14.84571 14.84571,-14.84766 5.46875,-5.45898 -5.4668,-5.46875 -9.38477,-9.38086 z m -0.004,13.11328 7.20313,7.20117 -7.20118,7.19922 -7.20117,-7.20117 z m 0.002,-7.64844 -14.85156,14.85156 2.73438,2.72852 12.11718,12.11719 12.11524,-12.11719 2.73437,-2.72852 -2.73242,-2.73437 -9.38672,-9.38281 z m 0,2.18555 1.63672,1.64062 9.38672,9.38282 1.64063,1.64062 -1.64063,1.63867 -11.02344,11.02344 -11.02539,-11.02344 -1.63867,-1.63867 z m -46.0039,150.09375 -5.97656,7.08594 73.60606,62.09228 6.38919,-6.73785 z m -17.84961,-75.70117 -5.98828,7.07617 144.4375,122.27734 5.98828,-7.07617 z m 153.04687,97.6875 -20.69531,24.44531 7.07422,5.99023 20.69531,-24.44531 z m -136.08984,-20.91407 -20.47656,24.1875 7.07422,5.99024 20.47656,-24.1875 z m -21.59766,-71.29297 -29.97505,35.40632 7.04051,6.03004 30.00876,-35.44612 z m 63.27344,-54.23242 v 169.97266 h 9.26953 V 161.68945 Z"
         sodipodi:nodetypes="ccccccccccccccccccccccccccccccccccccccccccccccccccccccccccccccccccccccccccccccccccccccccccccccccccccccccccccccccccccccccccccccccccccccccccccccccccccccccccccccccccccccccc" /></g></g></svg>
